<svg width="135" height="135" viewBox="0 0 135 135" fill="none" xmlns="http://www.w3.org/2000/svg">
<g clip-path="url(#clip0_734_482)">
<path d="M75.8146 35.1189C76.4504 33.779 77.8425 33.0411 79.2414 32.5822C80.5407 32.157 81.5897 31.3293 82.1485 30.1515C83.4484 27.4121 81.5981 23.8103 78.0113 22.1084C74.4244 20.4064 70.4643 21.2512 69.1645 23.9906C68.5962 25.1882 68.6301 26.55 69.1486 27.8459C69.6739 29.1693 69.9725 30.6688 69.354 31.9723C69.1494 32.4122 68.8584 32.8062 68.499 33.13C68.1396 33.4538 67.7194 33.7005 67.2645 33.8547C66.8096 34.0089 66.3296 34.0674 65.8542 34.0267C65.3789 33.9859 64.9183 33.8466 64.5011 33.6175C61.3283 31.8544 58.225 29.9681 55.198 27.9629C54.85 27.7324 54.4527 27.5876 54.0374 27.5399C53.6221 27.4922 53.2 27.5429 52.8046 27.6881C52.4091 27.8333 52.051 28.069 51.7585 28.3766C51.466 28.6842 51.2471 29.0553 51.1189 29.4606C50.0145 32.9615 48.7664 36.4469 47.3807 39.9035C47.198 40.3529 46.9266 40.7609 46.5834 41.1022C46.2401 41.4436 45.8324 41.711 45.3853 41.8879C44.9382 42.0649 44.4614 42.1476 43.9843 42.131C43.5072 42.1143 43.04 41.9987 42.6116 41.7912C41.3359 41.1859 40.6424 39.8313 40.239 38.4604C39.8473 37.1153 39.0365 36.0415 37.8614 35.4839C35.1737 34.2086 31.5874 36.1347 29.8527 39.7905C28.1181 43.4463 28.8944 47.4424 31.5821 48.7177C32.7377 49.266 34.0581 49.2237 35.3256 48.7065C36.6878 48.149 38.2222 47.8151 39.5368 48.4389C39.9745 48.6424 40.3657 48.934 40.6869 49.2961C41.0082 49.6582 41.2528 50.0834 41.4062 50.5461C41.5595 51.0088 41.6185 51.4995 41.5794 51.9887C41.5404 52.4779 41.4041 52.9556 41.1789 53.3929C39.0638 57.4519 36.7621 61.4104 34.2816 65.2553C33.8882 65.8648 33.7469 66.6036 33.8885 67.3102C34.03 68.0169 34.4431 68.634 35.0373 69.0267C38.2164 71.127 41.494 73.1118 44.8734 74.9829C45.2914 75.2112 45.7525 75.3496 46.2282 75.3896C46.7039 75.4297 47.1842 75.3705 47.6392 75.2157C48.0943 75.0609 48.5145 74.8138 48.874 74.4896C49.2336 74.1655 49.5247 73.7712 49.7294 73.331C50.348 72.0275 50.0509 70.5246 49.5224 69.1997C49.0087 67.9021 48.9732 66.5436 49.5415 65.346C50.8413 62.6066 54.8014 61.7618 58.3883 63.4638C61.9751 65.1657 63.8254 68.7675 62.5255 71.5069C61.9667 72.6847 60.9177 73.5124 59.6184 73.9375C58.2211 74.3932 56.8274 75.1344 56.1916 76.4743C55.9774 76.9174 55.8531 77.3983 55.8263 77.8884C55.7995 78.3784 55.8707 78.8674 56.0356 79.326C56.2004 79.7847 56.4557 80.2035 56.7859 80.5575C57.1161 80.9114 57.5146 81.1931 57.9573 81.3857C62.3347 83.2652 66.8021 84.9291 71.3438 86.3716C71.9076 86.5507 72.5167 86.5363 73.0771 86.3305C73.6376 86.1247 74.1184 85.739 74.4452 85.2329C77.0572 81.1948 79.4994 76.9951 81.7573 72.6472C81.9821 72.2095 82.118 71.7316 82.1567 71.2422C82.1954 70.7528 82.1361 70.262 81.9825 69.7992C81.8289 69.3365 81.584 68.9112 81.2626 68.5491C80.9411 68.1869 80.5498 67.8953 80.112 67.6916C78.7973 67.0678 77.2662 67.4033 75.9008 67.9592C74.6333 68.4765 73.3128 68.5188 72.1572 67.9704C69.4695 66.6951 68.6932 62.6991 70.4279 59.0432C72.1626 55.3874 75.7489 53.4614 78.4366 54.7367C79.6117 55.2943 80.4225 56.3681 80.8158 57.7099C81.2191 59.0808 81.9111 60.4387 83.19 61.0455C83.6187 61.2531 84.0861 61.3689 84.5635 61.3857C85.0409 61.4026 85.5181 61.3202 85.9657 61.1436C86.4132 60.967 86.8215 60.6999 87.1655 60.3589C87.5095 60.0179 87.7818 59.6102 87.9656 59.1609C89.4276 55.5376 90.7506 51.8602 91.9318 48.1371C92.1512 47.4456 92.0926 46.6984 91.7687 46.0587C91.4448 45.4189 90.882 44.9387 90.2033 44.7228C85.9223 43.3613 81.7104 41.7943 77.5819 40.027C77.1391 39.8349 76.7405 39.5537 76.4101 39.2001C76.0797 38.8466 75.8243 38.428 75.6593 37.9696C75.4942 37.5112 75.4229 37.0224 75.4496 36.5325C75.4763 36.0426 75.6005 35.5618 75.8146 35.1189Z" fill="#6D9B78"/>
</g>
<defs>
<clipPath id="clip0_734_482">
<rect width="100.682" height="100.682" fill="white" transform="translate(43.1611) rotate(25.3842)"/>
</clipPath>
</defs>
</svg>
