<svg width="391" height="391" viewBox="0 0 391 391" fill="none" xmlns="http://www.w3.org/2000/svg">
<g clip-path="url(#clip0_734_386)">
<path d="M192 106.973C189.731 101.338 191.444 95.0695 194.025 89.5513C196.426 84.4291 196.89 78.9546 194.895 74.001C190.257 62.4797 174.039 58.1429 158.663 64.3332C143.287 70.5235 134.598 84.8879 139.237 96.4093C141.265 101.446 145.504 105.108 150.921 107.115C156.44 109.178 161.851 112.417 164.059 117.899C164.815 119.737 165.187 121.71 165.15 123.697C165.113 125.684 164.669 127.642 163.845 129.45C163.02 131.258 161.834 132.878 160.358 134.209C158.883 135.54 157.15 136.554 155.266 137.188C140.882 141.952 126.32 146.164 111.614 149.815C109.923 150.235 108.353 151.041 107.027 152.171C105.701 153.301 104.655 154.723 103.973 156.325C103.29 157.928 102.989 159.667 103.093 161.406C103.197 163.145 103.704 164.836 104.573 166.346C112.084 179.379 119.139 192.805 125.715 206.57C126.563 208.368 127.033 210.32 127.095 212.306C127.158 214.292 126.812 216.27 126.079 218.117C125.347 219.965 124.243 221.642 122.835 223.045C121.428 224.448 119.748 225.548 117.899 226.275C112.43 228.477 106.338 226.839 101.02 224.274C95.8142 221.745 90.2422 221.24 85.2051 223.268C73.6838 227.906 69.347 244.124 75.5373 259.5C81.7275 274.876 96.092 283.565 107.613 278.926C112.567 276.932 116.193 272.804 118.223 267.524C120.399 261.845 123.746 256.261 129.381 253.992C131.245 253.226 133.244 252.843 135.259 252.869C137.274 252.894 139.263 253.326 141.107 254.14C142.951 254.953 144.611 256.13 145.988 257.601C147.366 259.073 148.431 260.807 149.122 262.7C155.457 280.346 160.956 298.28 165.601 316.444C166.337 319.324 168.183 321.796 170.735 323.32C173.288 324.843 176.339 325.294 179.223 324.575C194.652 320.724 210.009 316.256 225.309 311.163C227.192 310.524 228.924 309.506 230.399 308.172C231.873 306.838 233.058 305.215 233.881 303.405C234.704 301.595 235.147 299.635 235.183 297.647C235.219 295.659 234.847 293.685 234.09 291.846C231.883 286.363 226.466 283.111 220.932 281.054C215.524 279.027 211.29 275.379 209.263 270.342C204.624 258.821 213.313 244.456 228.689 238.266C244.064 232.076 260.283 236.413 264.921 247.934C266.915 252.888 266.451 258.362 264.051 263.484C261.464 268.988 259.757 275.271 262.026 280.906C262.764 282.782 263.874 284.489 265.289 285.925C266.703 287.361 268.394 288.497 270.258 289.264C272.122 290.031 274.122 290.413 276.137 290.389C278.153 290.364 280.143 289.933 281.988 289.12C300.151 281.019 317.914 272.049 335.216 262.241C337.364 261.024 339.051 259.134 340.019 256.862C340.986 254.591 341.179 252.065 340.569 249.672C335.71 230.575 329.877 211.547 323.069 192.669C322.376 190.776 321.308 189.042 319.93 187.571C318.551 186.101 316.889 184.924 315.044 184.111C313.2 183.299 311.21 182.867 309.194 182.842C307.178 182.817 305.178 183.2 303.314 183.967C297.679 186.236 294.346 191.814 292.155 197.498C290.126 202.778 286.5 206.906 281.546 208.901C270.025 213.539 255.66 204.85 249.47 189.474C243.28 174.099 247.617 157.881 259.138 153.242C264.175 151.214 269.747 151.72 274.948 154.234C280.265 156.799 286.363 158.451 291.846 156.244C293.696 155.516 295.377 154.416 296.786 153.012C298.195 151.609 299.301 149.931 300.036 148.084C300.771 146.236 301.119 144.257 301.06 142.27C301 140.282 300.534 138.328 299.69 136.528C292.823 122.07 285.397 107.885 277.428 94.0049C275.948 91.4269 273.508 89.5393 270.641 88.7545C267.774 87.9697 264.713 88.3515 262.127 89.8165C245.813 99.0565 229.071 107.518 211.957 115.173C210.113 115.987 208.124 116.421 206.109 116.447C204.094 116.473 202.095 116.092 200.231 115.326C198.367 114.56 196.677 113.425 195.263 111.99C193.848 110.555 192.738 108.848 192 106.973Z" fill="#3C6F30"/>
</g>
<defs>
<clipPath id="clip0_734_386">
<rect width="300" height="300" fill="white" transform="translate(0 112.041) rotate(-21.9298)"/>
</clipPath>
</defs>
</svg>
