<svg width="213" height="275" viewBox="0 0 213 275" fill="none" xmlns="http://www.w3.org/2000/svg">
<g clip-path="url(#clip0_734_389)">
<path d="M9.19215 142.721C5.19996 144.48 0.713221 143.514 -3.2483 141.924C-6.92563 140.444 -10.8329 140.313 -14.3421 141.859C-22.5039 145.456 -25.4182 156.793 -20.838 167.187C-16.2578 177.58 -5.92396 183.079 2.23784 179.482C5.80617 177.91 8.36999 174.859 9.7417 171.054C11.1518 167.175 13.4012 163.331 17.285 161.619C18.5865 161.034 19.989 160.71 21.4056 160.666C22.8223 160.623 24.2229 160.862 25.5208 161.369C26.8187 161.875 27.9862 162.638 28.9511 163.61C29.916 164.582 30.6578 165.742 31.1304 167.02C34.6827 176.779 37.8439 186.679 40.607 196.698C40.9245 197.85 41.5165 198.905 42.3362 199.781C43.156 200.657 44.1812 201.329 45.331 201.744C46.4808 202.16 47.7238 202.308 48.9622 202.176C50.2005 202.044 51.4002 201.637 52.4669 200.985C61.6749 195.355 71.1685 190.026 80.9083 185.015C82.1802 184.368 83.5667 183.977 84.9818 183.865C86.3968 183.753 87.8105 183.924 89.1352 184.366C90.4598 184.807 91.6673 185.511 92.6829 186.434C93.6985 187.356 94.5005 188.477 95.0393 189.728C96.6683 193.424 95.5672 197.683 93.7971 201.44C92.0515 205.119 91.7519 208.98 93.2524 212.385C96.6844 220.173 108.292 222.606 119.184 217.806C130.077 213.005 136.113 202.797 132.681 195.009C131.206 191.661 128.224 189.302 124.438 188.083C120.366 186.777 116.35 184.661 114.671 180.852C114.104 179.593 113.81 178.226 113.806 176.836C113.802 175.445 114.088 174.058 114.648 172.758C115.208 171.458 116.029 170.272 117.062 169.271C118.096 168.27 119.32 167.475 120.662 166.934C133.171 161.956 145.895 157.544 158.792 153.714C160.836 153.107 162.578 151.749 163.636 149.936C164.694 148.122 164.983 146.002 164.439 144.037C161.526 133.527 158.173 123.087 154.376 112.708C153.9 111.431 153.155 110.271 152.188 109.3C151.221 108.329 150.052 107.567 148.752 107.062C147.453 106.556 146.051 106.318 144.634 106.362C143.216 106.406 141.813 106.73 140.511 107.316C136.627 109.027 134.368 112.876 132.962 116.764C131.576 120.565 129.022 123.611 125.454 125.183C117.292 128.78 106.958 123.281 102.378 112.888C97.7975 102.494 100.712 91.157 108.874 87.5602C112.383 86.0138 116.29 86.1453 119.967 87.6249C123.919 89.2195 128.416 90.1808 132.408 88.4215C133.737 87.8473 134.941 87.0228 135.95 85.9975C136.958 84.9722 137.749 83.7672 138.275 82.4548C138.802 81.1424 139.053 79.7496 139.013 78.36C138.974 76.9704 138.644 75.6125 138.045 74.3679C132.073 62.1172 125.485 50.1725 118.305 38.5754C117.414 37.1357 116.048 36.0366 114.419 35.4475C112.789 34.8584 110.986 34.812 109.288 35.3156C95.728 39.3253 82.2283 44.0051 68.8461 49.3521C67.5042 49.895 66.28 50.6912 65.2469 51.6931C64.2138 52.6949 63.393 53.8817 62.8339 55.1823C62.2748 56.4829 61.9888 57.8704 61.993 59.2618C61.9973 60.6531 62.2918 62.0196 62.8588 63.2792C64.5375 67.0885 68.5501 69.1954 72.6259 70.5107C76.4117 71.729 79.3936 74.088 80.8692 77.4364C84.3012 85.2244 78.2644 95.433 67.3722 100.233C56.4799 105.033 44.8722 102.6 41.4402 94.8121C39.9397 91.4072 40.2393 87.546 41.9751 83.8719C43.7451 80.1153 44.8561 75.8516 43.223 72.1457C42.6837 70.8944 41.8813 69.7724 40.8656 68.8491C39.8498 67.9257 38.6421 67.2206 37.3171 66.7771C35.9921 66.3337 34.5779 66.1614 33.1618 66.2709C31.7457 66.3805 30.3578 66.7694 29.0837 67.4138C18.8533 72.6488 8.82326 78.2604 -0.98372 84.2359C-2.8052 85.3455 -4.12406 87.0937 -4.65219 89.0986C-5.18031 91.1034 -4.87476 93.202 -3.80229 94.9357C2.96199 105.871 9.17623 117.129 14.8195 128.671C15.4199 129.915 15.7504 131.272 15.7911 132.661C15.8317 134.05 15.5818 135.443 15.0562 136.755C14.5306 138.067 13.7402 139.272 12.7325 140.297C11.7248 141.322 10.5206 142.147 9.19215 142.721Z" fill="#5A964C"/>
</g>
<defs>
<clipPath id="clip0_734_389">
<rect width="205.572" height="215.439" fill="white" transform="translate(14.8995 274.995) rotate(-113.782)"/>
</clipPath>
</defs>
</svg>
