<svg width="37" height="" viewBox="0 0 51 86" fill="none" xmlns="http://www.w3.org/2000/svg">
<path d="M27.0957 45.025C27.0957 48.05 26.7207 50.775 25.9707 53.2C25.2457 55.6 24.1457 57.65 22.6707 59.35C21.2207 61.025 19.4082 62.325 17.2332 63.25C15.0832 64.15 12.5832 64.6 9.7332 64.6C8.4332 64.6 7.1457 64.5125 5.8707 64.3375C4.5957 64.1875 3.2707 63.9375 1.8957 63.5875L2.3457 58.3375C2.4207 57.8375 2.6082 57.4375 2.9082 57.1375C3.2332 56.8375 3.6957 56.6875 4.2957 56.6875C4.7457 56.6875 5.3207 56.7875 6.0207 56.9875C6.7457 57.1625 7.6832 57.25 8.8332 57.25C10.3582 57.25 11.7082 57.025 12.8832 56.575C14.0832 56.125 15.0832 55.425 15.8832 54.475C16.7082 53.5 17.3207 52.2625 17.7207 50.7625C18.1457 49.2375 18.3582 47.4 18.3582 45.25V10H27.0957V45.025Z" fill="white"/>
<path d="M44.0957 61.025C44.0957 64.05 43.7207 66.775 42.9707 69.2C42.2457 71.6 41.1457 73.65 39.6707 75.35C38.2207 77.025 36.4082 78.325 34.2332 79.25C32.0832 80.15 29.5832 80.6 26.7332 80.6C25.4332 80.6 24.1457 80.5125 22.8707 80.3375C21.5957 80.1875 20.2707 79.9375 18.8957 79.5875L19.3457 74.3375C19.4207 73.8375 19.6082 73.4375 19.9082 73.1375C20.2332 72.8375 20.6957 72.6875 21.2957 72.6875C21.7457 72.6875 22.3207 72.7875 23.0207 72.9875C23.7457 73.1625 24.6832 73.25 25.8332 73.25C27.3582 73.25 28.7082 73.025 29.8832 72.575C31.0832 72.125 32.0832 71.425 32.8832 70.475C33.7082 69.5 34.3207 68.2625 34.7207 66.7625C35.1457 65.2375 35.3582 63.4 35.3582 61.25V26H44.0957V61.025Z" fill="white"/>
</svg>
